<svg id="Character" xmlns="http://www.w3.org/2000/svg" xmlns:xlink="http://www.w3.org/1999/xlink" viewBox="0 0 500 500"><defs><clipPath id="clip-path"><rect x="-460.91" y="-165.61" width="1485.54" height="1485.54" style="fill:none"/></clipPath></defs><title>avatar-amico</title><g style="clip-path:url(#clip-path)"><g id="Character-2"><path d="M833.56,339.77c-36.81-37.13-50-22.69-54.64,18a184.05,184.05,0,0,1-12.3,49.74C764,395,762.93,389.21,759.7,383c-6.39-12.41-17.24-12.71-21.84-10.75-3.6,1.48.83,10.1.27,25.88-.72,20.17-7.25,31.34-2.53,52.79A34.3,34.3,0,0,1,732,474.51c-19.88,36.79-83.19,104.88-128,153.85C564.53,592.7,476.28,512.84,433.89,474.72c-58-52.26-76.95-75.85-133.08-72,0,0,21.75,6.63,47.75,28.61s19.82,147.9,19.82,147.9S561.5,717.67,581.28,730.74q4.46,2.89,8.92,5.26A47.53,47.53,0,0,0,648,724.89c41.21-47.13,101.26-139.82,136-188,16.31-22.58,32.06-53.48,42-73.06C860.42,395.93,856.64,363,833.56,339.77Z" style="fill:#eaa6a6"/><path d="M254.11,44.9h0A149.83,149.83,0,0,1,403.94,194.73V389.6H224.69A128.41,128.41,0,0,1,96.28,261.19V202.81A157.86,157.86,0,0,1,254.08,44.9Z" style="fill:#263238"/><path d="M188.24,406h0c-71.31,4.9-76.33,39.34-94.15,77C80.48,511.71,80.33,545,90.7,575l49.7,143.8S117.14,775,90.1,828.16c124.79,69.61,280.5,33,317.91-17.83,1.57-10.75-8.05-95.07-14-150,22-55.11,27.78-90,18.51-126.44-17.21-67.63-84-133.49-113.56-131.09Z" style="fill:#3e4950"/><path d="M343.69,122.92c23.47,12.86,44.18,48.57,42.13,137.47-1.76,75.34-26.18,93.94-38.45,99.32s-35.92,2.11-58.89-1.72v45.19s31.76,36.93,29.71,57.67-45.9,25.61-75.61,5.37-48.81-51.1-48.81-51.1V305.82s-15.51,20.79-40.92,3.89-26.35-58.59-11.58-73.6,46.58-10.22,52.5,10.46c0,0,1.45-15.45,9.71-15.45,18,0,52.83-9.56,72.11-20.17C331.47,180.26,336,153.73,343.69,122.92Z" style="fill:#eaa6a6"/><path d="M367,211l-21.07-10.07a11.21,11.21,0,0,1,14.67-6l.52.23A12.3,12.3,0,0,1,367,211Z" style="fill:#263238"/><path d="M275.65,198.92l-19.73,12.44a11.23,11.23,0,0,1,2.74-15.64l.47-.31A12.27,12.27,0,0,1,275.65,198.92Z" style="fill:#263238"/><path d="M193,225.8l1.31,46.12a22.38,22.38,0,0,0,22.88-21.86q0-.54,0-1.08A24.25,24.25,0,0,0,193,225.8Z" style="fill:#263238"/><path d="M105,73l38.62,25.38A22.4,22.4,0,0,0,138.77,67c-.28-.21-.57-.41-.86-.6A24.21,24.21,0,0,0,105,73Z" style="fill:#263238"/><path d="M148.81,41.39l-3.62,46A22.42,22.42,0,0,0,170.33,68c0-.34.08-.67.11-1A24.24,24.24,0,0,0,148.81,41.39Z" style="fill:#263238"/><path d="M285.1,238.46a9.63,9.63,0,0,1-8.92,10.28,9.75,9.75,0,0,1-10-9.39,9.48,9.48,0,0,1,18.9-1.46l0,.57Z" style="fill:#263238"/><path d="M296.09,305.31l22,7a11.29,11.29,0,0,1-13.82,8l-.48-.14A12.05,12.05,0,0,1,296.09,305.31Z" style="fill:#db8e8e"/><path d="M362.55,234.6a9.48,9.48,0,1,1-9.95-9.36,9.63,9.63,0,0,1,9.95,9.29Z" style="fill:#263238"/><polygon points="312.1 229.19 313.62 286.21 343.63 276.91 312.1 229.19" style="fill:#db8e8e"/><path d="M288.48,358c-24.24-3.18-74.1-17.5-81.85-37.23,0,0,2.58,12.39,17.47,25.16s64.38,27.13,64.38,27.13Z" style="fill:#db8e8e"/><path d="M220.15,841.59c-41-9.72-67-51.16-56.15-91.84a35.83,35.83,0,0,1,1.27-3.92c8-19.28,25.26-16.76,25.26-16.76h0a72.73,72.73,0,0,1-31.17-46.46l-15.15-90.12a105,105,0,0,1,3.95-43.64L97.92,491l-9.18,6.3A125.08,125.08,0,0,0,90.79,575l49.7,143.8S117.23,775,90.19,828.16c91.93,51.31,200.64,44.89,266.51,17.65A363.3,363.3,0,0,1,220.15,841.59Z" style="fill:#263238"/><path d="M-23.36,706.61C1,607.38,75.1,411,153.77,412c22.94,27.45,16.61,110.35-19.69,160.68,0,0-80.91,170.72-93.83,231.41C28.9,857.4,16.07,924.48,16.87,970.33a33.16,33.16,0,0,0,8.91,21.77c14.86,16,14.86,28.94,24.42,46.65,7.49,13.88,15.69,19,13.34,22.16-3,4-12.48,9.24-24.27,1.82-5.94-3.78-9.81-8.17-18.42-17.68a183.89,183.89,0,0,0,14.68,49.08c16.6,37.44,12.56,56.45-38,43.23C-34.15,1129-54,1102.6-58.9,1026.48c-1.36-22-3.41-56.45-.83-84.29C-52.83,870-41.22,779.38-23.36,706.61Z" style="fill:#eaa6a6"/></g></g></svg>