<svg id="Character" xmlns="http://www.w3.org/2000/svg" viewBox="0 0 500 500"><title>avatar-cuate</title><path d="M230.14,670.59A331.9,331.9,0,0,1,158,694.12c48.3-49,74.73-179.39,66.1-162.28C182.67,615.26,103.19,698.33,80.9,697.92h-.41a251.33,251.33,0,0,1-143.38-69h0C-3.14,574.83,27.43,442.63,22.46,450c-53.19,78-132,111.84-143.44,108.88h0c-32.64-51.27-45.26-97.49-38.16-100.12,51.61-19.18,108.33-87.42,162.42-161h0C56.69,225.29,92.56,152.91,157.49,92.19,216.9,37,306.32,45.62,346.89,91.3,453.56,211.07,263.12,656.17,230.14,670.59Z" style="fill:#263238"/><path d="M339.57,83.64a89.46,89.46,0,0,1,22.7,30.29,206.52,206.52,0,0,1,13.39,35.81,358.5,358.5,0,0,1,10.42,75.89,574.57,574.57,0,0,1-15.8,151.8A898.67,898.67,0,0,1,322,521.91c-4.83,11.73-10.42,23.11-15.59,34.49l-16.63,34.5-17.87,33.47-18.77,32.42,16.83-34,16.15-34.5,15.52-34.5c4.77-11.73,9.94-23.25,14.42-35a977.39,977.39,0,0,0,46-143.86A602.49,602.49,0,0,0,379.8,225.49a373.78,373.78,0,0,0-7.94-74.86,218.77,218.77,0,0,0-11.52-35.81,119.55,119.55,0,0,0-8.83-16.9A62,62,0,0,0,339.57,83.64Z" style="fill:#263238"/><path d="M-160.86,444a649.1,649.1,0,0,0,50.3-42.23c15.8-14.63,31.94-29.94,46.85-45.95s29.32-32.36,42.64-49.61S5.14,271.1,18.32,253.58c26.64-34.92,53.27-69.9,82-103.5,14.42-16.63,29.19-33,45-48.3a312.43,312.43,0,0,1,25-21.66,80.2,80.2,0,0,1,29-15.46,84.51,84.51,0,0,0-27.6,17.25,293.92,293.92,0,0,0-23.52,22.77c-15.12,15.8-29.19,32.57-43,49.54C77.59,188.3,51.1,223.22,25,258.41c-13.32,17.38-26.29,35-40,52.3a568.09,568.09,0,0,1-44,49.4A632.06,632.06,0,0,1-160.86,444Z" style="fill:#263238"/><path d="M366.62,552.89c50,63.89,281.3,243.07,373.76,235,60.3-5.18,258.8-119.71,301.79-157.45,50.3-44.16-37.05-177.32-74.45-164.77-46.57,15.67-205.4,119.16-248.39,131.1-24.84,6.9-176.49-69.55-317.38-140.83C348.13,429.1,332.12,509.42,366.62,552.89Z" style="fill:#eb9481"/><path d="M441.27,632.16,543.74,516.59s-110-70.37-179.4-92.66-61,23-24.91,80.66S441.27,632.16,441.27,632.16Z" style="fill:#ffc727"/><path d="M322.67,431.17a2.91,2.91,0,0,1-.9,3.94,2.83,2.83,0,1,1,.9-3.94Z" style="fill:#fff"/><path d="M362.34,493.41a3,3,0,0,1-.9,4,2.9,2.9,0,1,1,.9-4Z" style="fill:#fff"/><path d="M410.09,463a2.9,2.9,0,0,1-4.83,3.11,3,3,0,0,1,.9-4A2.89,2.89,0,0,1,410.09,463Z" style="fill:#fff"/><path d="M366.62,447a2.91,2.91,0,0,1-.83,4,3,3,0,0,1-4-.9,2.89,2.89,0,0,1,.9-3.93,2.83,2.83,0,0,1,3.92.8Z" style="fill:#fff"/><path d="M497.71,494.79a2.83,2.83,0,0,1-.8,3.92h0a2.91,2.91,0,0,1-4-.83,3,3,0,0,1,.9-4A2.9,2.9,0,0,1,497.71,494.79Z" style="fill:#fff"/><path d="M453.83,478.85a3,3,0,0,1-.89,4A2.9,2.9,0,0,1,449,482a2.83,2.83,0,0,1,.81-3.92l0,0A2.9,2.9,0,0,1,453.83,478.85Z" style="fill:#fff"/><path d="M348.47,428.35,492.26,574.69l-51,57.47s-120.46-119.91-121-121.29S348.47,428.35,348.47,428.35Z" style="fill:#263238"/><path d="M450.59,737.25l45.74,298.13s-459.24-6.9-561.42-15.59c0,0,111.77-436.82,230.24-580.27,2.69-3.31,5.45-6.48,8.21-9.38.48-.69,1-1.17,1.52-1.79,55.19-59.34,123.57-42.09,169.59-3.94,11.39,9.52,120.19,134,132.34,196.92C487.36,676.87,450.59,737.25,450.59,737.25Z" style="fill:#31454d"/><path d="M450.59,737.25l45.74,298.13s-459.24-6.9-561.42-15.59c0,0,111.77-436.82,230.24-580.27,2.69-3.31,5.45-6.48,8.21-9.38.48-.69,1-1.17,1.52-1.79,55.19-59.34,123.57-42.09,169.59-3.94,11.39,9.52,120.19,134,132.34,196.92C487.36,676.87,450.59,737.25,450.59,737.25Z" style="fill:#ffc727"/><path d="M196.2,420.13a2.83,2.83,0,0,1-2.83,2.83h-.07a2.83,2.83,0,1,1,2.9-2.89Z" style="fill:#fff"/><path d="M252.84,420.13A2.82,2.82,0,0,1,250,423H250a2.83,2.83,0,1,1,0-5.65h0a2.82,2.82,0,0,1,2.89,2.76Z" style="fill:#fff"/><path d="M309.49,420.13a2.83,2.83,0,0,1-2.83,2.83h-.07a2.83,2.83,0,1,1,2.9-2.89Z" style="fill:#fff"/><path d="M139.55,494a2.83,2.83,0,0,1-2.83,2.83h-.07a2.83,2.83,0,0,1-2.83-2.83h0a2.84,2.84,0,0,1,2.76-2.9h.07A2.9,2.9,0,0,1,139.55,494Z" style="fill:#fff"/><path d="M196.2,494a2.83,2.83,0,0,1-2.83,2.83h-.07a2.83,2.83,0,0,1-2.83-2.83h0a2.83,2.83,0,0,1,2.76-2.9h.07A2.9,2.9,0,0,1,196.2,494Z" style="fill:#fff"/><path d="M252.84,494a2.83,2.83,0,0,1-2.82,2.83H250a2.83,2.83,0,0,1-2.83-2.83h0a2.83,2.83,0,0,1,2.76-2.9H250A2.89,2.89,0,0,1,252.84,494Z" style="fill:#fff"/><path d="M309.49,494a2.83,2.83,0,0,1-2.83,2.83h-.07a2.83,2.83,0,0,1-2.83-2.83h0a2.84,2.84,0,0,1,2.76-2.9h.07A2.9,2.9,0,0,1,309.49,494Z" style="fill:#fff"/><path d="M366.14,494a2.83,2.83,0,0,1-2.83,2.83h-.07a2.83,2.83,0,0,1-2.83-2.83h0a2.83,2.83,0,0,1,2.76-2.9h.07A2.9,2.9,0,0,1,366.14,494Z" style="fill:#fff"/><path d="M167.84,457.05a2.83,2.83,0,0,1-2.83,2.83h0a2.83,2.83,0,0,1-2.9-2.76v-.07a2.9,2.9,0,0,1,2.9-2.9,2.83,2.83,0,0,1,2.83,2.83Z" style="fill:#fff"/><path d="M224.49,457.05a2.83,2.83,0,0,1-2.83,2.83h0a2.83,2.83,0,0,1-2.9-2.76v-.07a2.9,2.9,0,0,1,2.9-2.9,2.83,2.83,0,0,1,2.83,2.83Z" style="fill:#fff"/><path d="M281.13,457.05a2.83,2.83,0,0,1-2.83,2.83h0a2.82,2.82,0,0,1-2.89-2.76v-.07a2.89,2.89,0,0,1,2.89-2.9,2.83,2.83,0,0,1,2.83,2.83Z" style="fill:#fff"/><path d="M337.78,457.05a2.83,2.83,0,0,1-2.83,2.83h0a2.83,2.83,0,0,1-2.9-2.76v-.07a2.9,2.9,0,0,1,2.9-2.9,2.83,2.83,0,0,1,2.83,2.83Z" style="fill:#fff"/><path d="M150.52,468.64C1.14,623.81-229,1036.49-255.94,1092.86c-18.35,38.29,181.67,139.44,190.22,111.63C-54.81,1168.82,115.82,764.91,162,598.91,188,507.35,181.43,436.63,150.52,468.64Z" style="fill:#eb9481"/><path d="M27.09,592.63l136,73.2s57.47-119.5,63.27-192-41.95-66.65-89.7-18.28S27.09,592.63,27.09,592.63Z" style="fill:#31454d"/><path d="M27.09,592.63l136,73.2s57.47-119.5,63.27-192-41.95-66.65-89.7-18.28S27.09,592.63,27.09,592.63Z" style="fill:#ffc727"/><path d="M196.2,420.13a2.83,2.83,0,0,1-2.83,2.83h-.07a2.83,2.83,0,1,1,2.9-2.89Z" style="fill:#fff"/><path d="M139.55,494a2.83,2.83,0,0,1-2.83,2.83h-.07a2.83,2.83,0,0,1-2.83-2.83h0a2.84,2.84,0,0,1,2.76-2.9h.07A2.9,2.9,0,0,1,139.55,494Z" style="fill:#fff"/><path d="M196.2,494a2.83,2.83,0,0,1-2.83,2.83h-.07a2.83,2.83,0,0,1-2.83-2.83h0a2.83,2.83,0,0,1,2.76-2.9h.07A2.9,2.9,0,0,1,196.2,494Z" style="fill:#fff"/><path d="M167.84,457.05a2.83,2.83,0,0,1-2.83,2.83h0a2.83,2.83,0,0,1-2.9-2.76v-.07a2.9,2.9,0,0,1,2.9-2.9,2.83,2.83,0,0,1,2.83,2.83Z" style="fill:#fff"/><path d="M224.49,457.05a2.83,2.83,0,0,1-2.83,2.83h0a2.83,2.83,0,0,1-2.9-2.76v-.07a2.9,2.9,0,0,1,2.9-2.9,2.83,2.83,0,0,1,2.83,2.83Z" style="fill:#fff"/><path d="M241.39,387.71c-56.09,9-26.15,70.86-4.48,96.18s50.43,43.47,70.79,40.29S318.32,470,318.32,470s32,22.15,44.78,13.32S307.35,376.94,241.39,387.71Z" style="fill:#fff"/><path d="M223,425c3,7.87,49.54,55.2,86.52,48.3,12.07-2.34,2.28-69,2.28-69v-5l5.52-70.86-88-40.09-12.63-5.17v79.41A440.27,440.27,0,0,0,223,425Z" style="fill:#eb9481"/><path d="M216.69,327a142.61,142.61,0,0,0,95.42,72.38l5.52-70.86-88-40.09L217,283.24S216.76,302.7,216.69,327Z" style="fill:#263238"/><path d="M395.32,205.42c28.84,121.29-40.57,152.27-66.72,158.69-23.73,5.66-105.36,21.73-146.55-95.91s6-169.38,59.69-185.12S366.62,84.12,395.32,205.42Z" style="fill:#eb9481"/><path d="M359.72,192.38H351.1a14.29,14.29,0,0,1-8.7-2.07,4.49,4.49,0,0,1-.83-5.39,11,11,0,0,1,10.28-4.27,16.29,16.29,0,0,1,10.91,4,4.7,4.7,0,0,1-.49,6.62A4.82,4.82,0,0,1,359.72,192.38Z" style="fill:#263238"/><path d="M264.37,209.07c2.82-.82,5.31-2,8.07-3.1a13.81,13.81,0,0,0,7.52-4.76,4.42,4.42,0,0,0-.83-5.38,11.31,11.31,0,0,0-11.18-.76,16.12,16.12,0,0,0-9,7.31,4.68,4.68,0,0,0,5.45,6.69Z" style="fill:#263238"/><path d="M290.72,234.67s-.55.55-.48.9c1.79,8.28,2.55,18.08-4.48,22.28v.49C294.86,255.23,293.76,242.26,290.72,234.67Z" style="fill:#263238"/><path d="M281.62,227.43c-13.8,1.51-9.6,28.56,3,27.18S293,226.12,281.62,227.43Z" style="fill:#263238"/><path d="M276.51,229.63c-2.14,1.87-4.07,4.9-6.9,5.66s-6.21-1.65-8.76-4.07h-.42c.69,5.24,3.45,10.28,9.18,10.21s8.14-5.17,8.62-10.62C278.44,230.19,277.34,229,276.51,229.63Z" style="fill:#263238"/><path d="M348.47,225.77c0-.34.76,0,.76.62,1,8.42,3.38,17.94,11.39,19.67v.48C351.16,246.54,348,233.91,348.47,225.77Z" style="fill:#263238"/><path d="M354.75,215.9c13.39-3,18.29,24,5.87,26.77S343.57,218.39,354.75,215.9Z" style="fill:#263238"/><path d="M360.69,216.66c2.41,1,5,3.25,7.59,3s4.62-3.66,6-6.9h.48c1,5.11,0,10.76-4.48,12.63s-8.42-2.07-10.63-6.9C359.31,217.84,359.72,216.25,360.69,216.66Z" style="fill:#263238"/><path d="M310.18,301.18c2.28,1.8,4.55,4.28,7.66,4.21a21.37,21.37,0,0,0,8.83-3m.41.41a11.51,11.51,0,0,1-10.28,5.66,9.11,9.11,0,0,1-7.38-6.9c-.21-.35.48-.55.76-.35Z" style="fill:#263238"/><path d="M340.33,265.24s3.8,12.28,4.76,18.14c0,.55-1.31,1-3.31,1.52h0a28.35,28.35,0,0,1-29-6.07c-.48-.48,0-1.24.76-1a42.72,42.72,0,0,0,26.77,3.25c0-1.73-6.9-20.7-6.14-20.7a48.79,48.79,0,0,1,13.8.89c-6.9-25.73-18.21-50.09-24.84-75.89,0-.9,1.11-1.45,1.52-.62a434.61,434.61,0,0,1,30.22,80.52C355.79,268.34,342.88,265.86,340.33,265.24Z" style="fill:#263238"/><path d="M340.54,280.42a35.18,35.18,0,0,1-10.49,14.21,15.92,15.92,0,0,1-9,3.1c-6.9,0-9-5.86-9.24-11.45a36.3,36.3,0,0,1,.76-8.76A44.73,44.73,0,0,0,340.54,280.42Z" style="fill:#263238"/><path d="M330.05,294.63a15.92,15.92,0,0,1-9,3.1c-6.9,0-9-5.86-9.24-11.45A16.14,16.14,0,0,1,330.05,294.63Z" style="fill:#ff9bbc"/><path d="M183.09,268.48c13.8-3.17,44.16-48,34.08-116.12,0,0,4.83,62.09,1.73,71.55s16.63-25.19,9.73-80.32a223.5,223.5,0,0,0,61.06,19.94c27.11,3,42.91,0,44.43-2.06s-38.5-7.87-50.78-18.08c0,0,74.17,20.7,106.32,17.87,3.73,0-4.34-76.59-58.71-100.53s-126.4,23.46-144,47.12c0,0-23.94,7.53-44.64,48.3S168.05,271.86,183.09,268.48Z" style="fill:#263238"/><path d="M203.51,272.76s-32.57-34.5-48.64-22.36S167.29,315.4,189,320a21.11,21.11,0,0,0,26.12-14.47c.06-.21.12-.43.17-.64Z" style="fill:#eb9481"/><path d="M163.42,262.34c15.25,3.72,24.84,15.94,32.16,28.91a11.66,11.66,0,0,0-16.4-1.74,11,11,0,0,0-1.27,1.19s0,.82.49.69a12.88,12.88,0,0,1,14.76,2.41,62.47,62.47,0,0,1,8.49,10.42c.83,1.17,3,0,2.34-1.24h0c-2.55-18.77-20.63-42.3-40.57-41.19Z" style="fill:#263238"/><path d="M199.92,308.57a6.14,6.14,0,1,1-7.15-4.93l.25,0A6.14,6.14,0,0,1,199.92,308.57Z" style="fill:#ffc727"/><path d="M147.9,283.18l10.56-2a2.82,2.82,0,0,0,2.29-3.27.43.43,0,0,0,0-.11h0a2.89,2.89,0,0,0-3.38-2.27l-10.55,2a2.89,2.89,0,0,0-2.28,3.38h0A2.9,2.9,0,0,0,147.9,283.18Z" style="fill:#ffc727"/><path d="M146.31,273.86h10.77a2.83,2.83,0,0,0,2.83-2.83V271h0a2.82,2.82,0,0,0-2.82-2.83H146.24a3,3,0,0,0-2.83,3h0a2.83,2.83,0,0,0,2.9,2.76Z" style="fill:#ffc727"/><path d="M342.75,235.91c-1.94-20.28,7.38-37.74,20.7-39s25.8,14.21,27.59,34.5-7.45,37.74-20.69,39S344.61,256.2,342.75,235.91Zm4.9-.48c1.65,17.53,11.66,31,22.35,30s18.08-16.07,16.42-33.67-11.73-31-22.42-29.94S345.92,217.9,347.65,235.43Z" style="fill:#263238"/><path d="M250.36,244.61a34.5,34.5,0,1,1,37.74,33.53A35.74,35.74,0,0,1,250.36,244.61Zm4.9-.49a29.6,29.6,0,1,0,26.42-34.49A30.9,30.9,0,0,0,255.26,244.12Z" style="fill:#263238"/><path d="M317,235c17.8-8.21,26.63-3,26.77-2.9l2.62-4.21c-.41,0-11-6.9-31.46,2.62Z" style="fill:#263238"/><path d="M252.57,241.16l.41-4.9c-3.24,0-79.48-6.9-87.69-6.9s-27.6,13.45-29.74,14.9l2.83,4.07c5.31-3.72,20.7-13.45,26.7-13.8h.41C171.77,234.19,225.18,238.74,252.57,241.16Z" style="fill:#263238"/><path d="M386.63,219.42s9.18-13.31,9-13.8c1.93.62,2.27,4.49,1.38,6.14s-6.9,13.8-6.9,13.8Z" style="fill:#263238"/></svg>