<svg id="Character" xmlns="http://www.w3.org/2000/svg" xmlns:xlink="http://www.w3.org/1999/xlink" viewBox="0 0 500 500"><defs><clipPath id="clip-path"><rect x="-425.82" y="-150.69" width="1467.58" height="1467.58" style="fill:none"/></clipPath></defs><title>avatar-pana</title><g style="clip-path:url(#clip-path)"><path d="M224.64,472.36h0a66.52,66.52,0,0,0,71.45-61.19c.06-.83.11-1.67.14-2.51,1.41-36.19,2.64-72.76,2.64-72.76s54.86-5.22,59-59.35,1-176.11,1-176.11l1.7-.5c-61.37-31-134.75-29.2-191.64,9.19l-8.42,5.69,2.94,291.91A66.46,66.46,0,0,0,224.64,472.36Z" style="fill:#a37a65"/><path d="M334.15,191.17a7.87,7.87,0,1,1,.06.06Z" style="fill:#263238"/><path d="M355.32,183.33c-.91.88-5.87-3.55-13.48-4.05s-13.15,2.93-13.91,2c-.38-.47.59-2.12,2.94-3.76a18.46,18.46,0,0,1,21.86,1.61C354.93,181.16,355.76,182.92,355.32,183.33Z" style="fill:#263238"/><path d="M266.88,190.26a7.9,7.9,0,1,0-11,1.82,7.91,7.91,0,0,0,11-1.82Z" style="fill:#263238"/><path d="M247.65,183.92c.94.85,5.88-3.73,13.33-4.49S274.22,182,275,181c.35-.47-.64-2.08-3.17-3.67A18.5,18.5,0,0,0,250,179.69C247.83,181.86,247.21,183.65,247.65,183.92Z" style="fill:#263238"/><path d="M300.25,243.09c0-.59,4.67-1.23,12.24-1.82,2,0,3.55-.44,3.76-1.47a10.74,10.74,0,0,0-1.06-5.69c-1.61-5.08-3.26-10.19-5-15.56-6.84-22.16-11.44-40.41-10.33-40.74s7.57,17.32,14.41,39.48L319,233a12.46,12.46,0,0,1,.56,8.19,5.2,5.2,0,0,1-3.55,2.94,11.63,11.63,0,0,1-3.38.23C305,244.09,300.28,243.68,300.25,243.09Z" style="fill:#263238"/><path d="M347.71,74.29a246.52,246.52,0,0,0-137.95-6.87s-47,17.41-49.4,42.36.59,66.3.59,66.3l2.94.29-1.27,49.29L180.94,223l2.55-61.34s32-22.07,32.61-56.41c15.59-2.12,92-11.1,144.18,6.72V99.82C360.42,92.16,354.93,76.93,347.71,74.29Z" style="fill:#263238"/><path d="M299.7,335.84s-34.79-.62-69.22-27.3c0,0,13,41.1,68,41.45Z" style="fill:#825945"/><path d="M350.65,154.57c-.5.93-6.22-1.35-13.44-.59s-12.45,3.9-13.09,2.93,4.25-5.87,12.73-6.75S351.27,153.63,350.65,154.57Z" style="fill:#263238"/><path d="M271.9,154.57c-.47.93-6.19-1.35-13.41-.59s-12.45,3.9-13.1,2.93,4.26-5.87,12.74-6.75S272.54,153.63,271.9,154.57Z" style="fill:#263238"/><path d="M310.09,265.4c.52.82-7.67,4.69-17.82,1.85S277,257,277.89,256.53s6.4,4.79,15.35,7.14S309.79,264.34,310.09,265.4Z" style="fill:#fff"/><path d="M175.89,91.43a68.22,68.22,0,0,0,16.76-19.25,28.15,28.15,0,0,0,1.61-24.72,30,30,0,0,0-13.12-12.71,35.24,35.24,0,0,0-21.92-4.43,29.36,29.36,0,0,0-23.78,25.59,31.73,31.73,0,0,0,17.61,30.65,34.41,34.41,0,0,0,35.43-4.17" style="fill:#263238"/><path d="M165.68,174.73a8.23,8.23,0,0,0-7.84-8.22c-10.13-.26-26.71,3.76-28.27,31.73-2.23,39.95,36.19,30,36.34,28.82S165.76,190.26,165.68,174.73Z" style="fill:#a37a65"/><path d="M157.11,211.36c-.18,0-.74.47-1.94.94a7.08,7.08,0,0,1-5.2-.18c-4.14-1.79-7.31-8.8-7.1-15.9a23,23,0,0,1,2.49-9.87,8.08,8.08,0,0,1,5.52-5,3.6,3.6,0,0,1,4,2.14c.47,1.14.18,1.93.39,2s.88-.61.64-2.29a4.51,4.51,0,0,0-1.41-2.58,5.44,5.44,0,0,0-3.81-1.23,9.83,9.83,0,0,0-7.61,5.87,23.19,23.19,0,0,0-2.93,11c-.21,8.07,3.49,15.85,9.19,17.81a7.36,7.36,0,0,0,6.42-.7C157,212.33,157.25,211.45,157.11,211.36Z" style="fill:#825945"/><path d="M307.09,399.74c25.6,1.44,68.6,4.9,153.51,54.54,18.52,10.83,209,138.71,209,138.71L585.26,701,430,613.48l20.93,185.94L476.6,979.49l-386.42-22-1.7-163.81-3.2-151L15.69,814.77l-155.21-9.63S-28.46,500.91-7.15,476.05c25.6-29.91,58.3-48.07,95.63-61.63,16.35-5.87,48.72-11.48,70.12-12.83l-1.2-44.5s66.92,6.28,84.74,49.25c0,0,22.19-50.8,65.19-55Z" style="fill:#ff725e"/><path d="M307.09,399.74c25.6,1.44,68.6,4.9,153.51,54.54,18.52,10.83,209,138.71,209,138.71L585.26,701,430,613.48l20.93,185.94L476.6,979.49l-386.42-22-1.7-163.81-3.2-151L15.69,814.77l-155.21-9.63S-28.46,500.91-7.15,476.05c25.6-29.91,58.3-48.07,95.63-61.63,16.35-5.87,48.72-11.48,70.12-12.83l-1.2-44.5s66.92,6.28,84.74,49.25c0,0,22.19-50.8,65.19-55Z" style="fill:#222221;opacity:0.10000000149011612;isolation:isolate"/><path d="M77.56,423.25a13.84,13.84,0,0,1,2.38.73,47.54,47.54,0,0,1,6.31,3.14,69.14,69.14,0,0,1,19.31,17.35,92.08,92.08,0,0,1,16.21,35,128.51,128.51,0,0,1,1.11,47,263,263,0,0,1-11.56,45.67c-4.61,13.65-9.16,25.77-12.74,36s-6.22,18.58-8,24.39a51.5,51.5,0,0,1-2.93,9,39.85,39.85,0,0,1,1.5-9.33c1.32-5.87,3.58-14.5,6.86-24.89,6.23-20.81,18.11-48.7,23.16-81.25a128.75,128.75,0,0,0-.79-45.82,91.83,91.83,0,0,0-15-34.1C90.77,428.53,77,424,77.56,423.25Z" style="fill:#263238"/><path d="M434.62,654.75a42.48,42.48,0,0,1-1.55-8.81c-.82-6.54-1.85-14.67-3.08-24.51-2.62-21.48-6-49.66-9.81-80.86s-7.22-59.38-9.83-80.86c-1.17-9.75-2.17-18-2.93-24.51a39.77,39.77,0,0,1-.74-9,44.32,44.32,0,0,1,2.14,8.8c1.12,5.73,2.56,14.06,4.14,24.36,3.2,20.55,7.11,49.17,10.92,80.78s6.87,60.26,8.81,81c.94,10.39,1.58,18.81,1.91,24.66A44.18,44.18,0,0,1,434.62,654.75Z" style="fill:#263238"/><path d="M229.43,389.53a17.58,17.58,0,0,0-12.54,1.64,21.31,21.31,0,0,0-8.8,10.33,52,52,0,0,0-2.94,8L204,413.92a11.68,11.68,0,0,1-2.38,5.13,5.08,5.08,0,0,1-3.32,1.59,7,7,0,0,1-3.14-.59c-1.64-.7-2.93-1.35-4.28-2L183,414.15l-13.24-6.75c-7.48-3.93-12-6.6-11.74-7.07s5.17,1.38,12.92,4.69l13.59,6.05,7.95,3.67,4.11,1.88c1.32.5,1.82.44,2.41-.15,1.29-1.41,1.73-5.17,2.7-8A52.11,52.11,0,0,1,205,400a23,23,0,0,1,10.77-11.18,15.45,15.45,0,0,1,10.42-1.2C228.55,388.35,229.54,389.38,229.43,389.53Z" style="fill:#263238"/><path d="M308,397c.56.79-12.15,11.33-29,24.13l-2.4,1.82L276,420c-.21-1.2-.44-2.49-.68-3.78-1.73-11.25-5.46-20.76-10.89-25.63s-10.06-5.63-9.89-6.25,5.37-.85,11.74,4.29a30.21,30.21,0,0,1,8.25,11,66.84,66.84,0,0,1,4.55,15.91c.21,1.32.44,2.61.65,3.85l-2.94-1.18C293.8,405.49,307.47,396.22,308,397Z" style="fill:#263238"/><path d="M250.77,510.89a4.42,4.42,0,0,1-.88-1.26h0c-1.38-5.22-4.08-25.74-6.61-50.31-1.47-14.32-2.61-27.32-3.23-36.74s-.76-15.33-.26-15.38,1.58,5.69,2.93,15.05S245.66,444.59,247,459c2.52,24.6,4,45.26,3.76,50.6h0C250.88,510.34,250.91,510.84,250.77,510.89Z" style="fill:#263238"/><path d="M207.74,451,206,449.84l-.73,2-10,30.55L186.19,477l-17.08-9.83L167.06,466l-.65,2.35c-3.08,11.35-5.87,21.77-8.34,31a186.17,186.17,0,0,0-21.28-14.09A182.51,182.51,0,0,0,158,502.82l1.62,1.24.59-2,9.07-30.53,15,8.81,11.13,6.51,2.05,1.18.74-2.26c3.49-11.18,6.72-21.6,9.65-30.88,7.87,5.2,14.36,9.39,19.08,12.33a35.46,35.46,0,0,0,8.19,4.49,38,38,0,0,0-7.31-5.87C223.06,461.91,216.16,456.89,207.74,451Z" style="fill:#2e353a"/><path d="M306.62,511l1-1.85c4.58-8.13,9.83-17.61,15.53-27.71l12.88,11.75,9.45,8.8,1.76,1.62,1.18-2c5.87-10.27,11.39-19.72,16.29-28.21,6.49,6.72,11.94,12.24,15.88,16.12a36.07,36.07,0,0,0,6.95,6.22,35.38,35.38,0,0,0-5.87-7.84c-3.81-4.52-9.1-11.27-16.4-18.61l-1.41-1.52-1.09,1.76-16.7,27.59-7.54-7.08-14.68-13.41L322.12,475,321,477.14,306,505.7a191.87,191.87,0,0,0-17.61-18.23,182.38,182.38,0,0,0,16.84,22Z" style="fill:#fff"/><path d="M76.45,446.23l-1.76-1.61-1.18,2.14-15,28.56a184.83,184.83,0,0,0-17.61-18.23,185.1,185.1,0,0,0,16.85,22L59,480.6l1-1.82c4.58-8.16,9.83-17.61,15.53-27.7l12.91,11.74,9.45,8.8,1.73,1.62,1.18-2c5.87-10.27,11.39-19.72,16.29-28.21,6.48,6.75,11.94,12.27,15.88,16.15a39.15,39.15,0,0,0,7,6.22,34.34,34.34,0,0,0-5.87-7.84q-7.73-9.71-16.4-18.61l-1.38-1.55-1.12,1.76-16.7,27.59L91,459.68Z" style="fill:#fff"/><path d="M468,458.91l-9.92,4.85-1.91.85,1.47,1.55c6.48,7,13.88,14.91,21.8,23.31L470.2,495l-16.85,10.34-2.05,1.23,1.76,1.61,23.21,22.13a187.28,187.28,0,0,0-22.48,12,179.37,179.37,0,0,0,25.57-10.27l1.9-.8-1.46-1.55-22.37-22.34,15-9.16,11-6.66,2-1.26-1.61-1.67-22.49-23c3.41-1.73,6.55-3.37,9.37-4.93Z" style="fill:#2e353a"/></g></svg>