<svg id="Character" xmlns="http://www.w3.org/2000/svg" xmlns:xlink="http://www.w3.org/1999/xlink" viewBox="0 0 500 500"><defs><clipPath id="clip-path"><rect x="-393.73" y="-183.28" width="1369.15" height="1369.15" style="fill:none"/></clipPath><clipPath id="clip-path-2"><path d="M209.3,267.55c6.11,42.23,10.46,119.23-20.18,145.68,0,0,9.28,43,87,46.85,85.43,4.27,42.93-40.36,42.93-40.36-46.06-13.47-43.13-48-33.38-80.07Z" style="fill:none"/></clipPath></defs><title>avatar-rafiki</title><g style="clip-path:url(#clip-path)"><path d="M191.69,149.78c0,47.1,58.38,23.79,84.26,3.5s27.38-18.1,74.92-18.18,57.5-3.37,71.63-26.61,12.87-38.53-19-33.63-5.07-28.12-28.83-46.55-51.81-13.69-84.26,28.12S191.72,68.12,191.69,149.78Z" style="fill:#263238"/><path d="M466.67,404.08l-1.28-.43c18.26-52.83-.28-78.92-31-122.16-3.72-5.26-7.58-10.68-11.58-16.43-17.5-25.3-5.47-52.22,5.2-76,7.43-16.59,13.86-30.91,8.69-41.43-3.21-6.52-10.82-11.17-23.28-14.16l.3-1.34c12.9,3.1,20.81,8,24.21,14.9,5.47,11.09-1.1,25.68-8.66,42.58-10.51,23.44-22.4,50-5.34,74.62,4,5.78,7.86,11.2,11.59,16.43C465.41,322.78,485.27,350.69,466.67,404.08Z" style="fill:#263238"/><path d="M27.72,449.65A42.64,42.64,0,0,1-12.83,414.9c-5.23-24.18,6.35-57.5,44.11-77.33C94.84,304.16,83.12,275,66.88,234.5c-7.61-18.95,1.29-35.13,10.1-45.37,15.91-18.54,42.07-29.66,53.89-26.86l-.3,1.34C119.1,160.87,93.63,171.82,78,190c-8.58,10-17.23,25.69-9.89,44,16.43,41.08,28.42,70.81-36.2,104.82-37.13,19.5-48.55,52-43.43,75.83a41.32,41.32,0,0,0,39.27,33.65Z" style="fill:#263238"/><path d="M121.29,162.51c-20.29-3.58-77.68,35.08-59.12,74.76s32,68.46-30.12,105.78-48.33,110.82,2.38,110.84,141.76-60,186.21-1.91S461,455.43,478.17,394.72,467.44,309,427.79,258.11s52.57-118.38-17.17-131.06-44.88-69.83-111-91.76S118.58,67.25,121.29,162.51Z" style="fill:#263238"/><path d="M440,477.66c14.57,11,31.19,23.14,47.46,34s32.86,21.9,50,32a811.23,811.23,0,0,0,104.82,53.18l11.45,4.74c.52.33-.33.27-.57.63-.77.87-6.55,1-3.56-5,6.21-12.24,10.4-31.19,12.78-49.81a504.36,504.36,0,0,0,4.36-58.63c.63-19.85.55-40.33.13-60.05l35.36-5a561.11,561.11,0,0,1,15.06,127.53c-.77,22.23-1.78,44.82-11.61,70.62a93,93,0,0,1-11,20.12c-5,6.82-16.43,19.86-26.72,22.43a63.13,63.13,0,0,1-31.08,0c-5.48-1.48-7.09-2.19-9.86-3.07l-7.72-2.6a686.33,686.33,0,0,1-117.59-53.23c-18.56-10.6-37-21.44-54.76-33.38-8.85-6-17.64-12.05-26.34-18.35s-17-12.57-26.13-20Z" style="fill:#a9534a"/><path d="M432.5,429.55c28.34,9.06,86.88,94.69,86.88,94.69l-78.75,83.85S333,486.67,357.14,456.88C382.28,425.83,391.15,416.41,432.5,429.55Z" style="fill:#407bff"/><path d="M432.5,429.55c28.34,9.06,86.88,94.69,86.88,94.69l-78.75,83.85S333,486.67,357.14,456.88C382.28,425.83,391.15,416.41,432.5,429.55Z" style="fill:#fff;opacity:0.6000000238418579;isolation:isolate"/><path d="M443.2,476.65l-62.57,10.13L384,524.24c10.68,25.66,50.19,76.35,50.19,76.35l6.49,7.47,9.5-8.21C449.8,572.49,449.86,495.63,443.2,476.65Z" style="opacity:0.20000000298023224;isolation:isolate"/><path d="M432.5,429.55s43.35,18.18-49.07,418L99.58,829.42c12-113.5,16.62-183.68-23.75-420.76a852.16,852.16,0,0,1,121.56-8c47.89.77,87.13,1.75,128.89,8.21C381.21,417.39,432.5,429.55,432.5,429.55Z" style="fill:#407bff"/><path d="M432.5,429.55s43.35,18.18-49.07,418L99.58,829.42c12-113.5,16.62-183.68-23.75-420.76a852.16,852.16,0,0,1,121.56-8c47.89.77,87.13,1.75,128.89,8.21C381.21,417.39,432.5,429.55,432.5,429.55Z" style="fill:#fff;opacity:0.6000000238418579;isolation:isolate"/><path d="M77.26,408.36C49.71,414.71,1.71,516.55,1.71,516.55L101.9,597.13s52.83-86.31,43.82-121.44C136.05,439,108.78,401.07,77.26,408.36Z" style="fill:#407bff"/><path d="M77.26,408.36C49.71,414.71,1.71,516.55,1.71,516.55L101.9,597.13s52.83-86.31,43.82-121.44C136.05,439,108.78,401.07,77.26,408.36Z" style="fill:#fff;opacity:0.6000000238418579;isolation:isolate"/><path d="M209.3,267.55c6.11,42.23,10.46,119.23-20.18,145.68,0,0,9.28,43,87,46.85,85.43,4.27,42.93-40.36,42.93-40.36-46.06-13.47-43.13-48-33.38-80.07Z" style="fill:#a9534a"/><g style="clip-path:url(#clip-path-2)"><path d="M218.83,300.17l67.5,23.49a155.86,155.86,0,0,0,5.47,26.45c-20.18,4.66-54.76-6.1-64.43-25.33C222.39,315.09,219,305.45,218.83,300.17Z" style="opacity:0.20000000298023224;isolation:isolate"/></g><path d="M186.63,400.63c48.27.17,87.79.66,129.9,6.77l8.44,1.26c9.33,20.21,10.4,50.57-16.76,93.59,0,0-111.56-51.81-138.75-101.31C175.13,400.69,180.88,400.63,186.63,400.63Z" style="fill:#a9534a"/><path d="M171.51,139.13c37.43,23.9,33.65,148-25.77,96S140.24,119.27,171.51,139.13Z" style="fill:#263238"/><path d="M150.54,171.69C207.36,182.34,373.82,106,307.74,68S158,83.79,150.54,171.69Z" style="fill:#263238"/><path d="M179.92,194.41c8.71,63.83,10.57,101.65,45.4,132.15,52.41,45.87,129.36,10.63,139.9-54.54,9.5-58.63-6.35-153.16-71-174C230.6,77.46,171.21,130.58,179.92,194.41Z" style="fill:#a9534a"/><path d="M333.29,208.79c.49,5.67,3.92,10,7.61,9.64s6.3-5.18,5.81-11-3.92-10-7.64-9.67S332.77,203.12,333.29,208.79Z" style="fill:#263238"/><path d="M337.4,198.38l13.25-5.14S344.71,204.49,337.4,198.38Z" style="fill:#263238"/><path d="M259.57,213.53c.5,5.86,4,10.32,7.81,10s6.52-5.31,6-11.17-4-10.3-7.8-10S259.08,207.69,259.57,213.53Z" style="fill:#263238"/><path d="M263.93,202.82l13.69-5.23S271.35,209.17,263.93,202.82Z" style="fill:#263238"/><path d="M308.34,213.77s11.31,23.42,22.65,34.29c-6.9,7.44-19.69,5.23-19.69,5.23Z" style="fill:#94221f"/><path d="M301.8,279a43.83,43.83,0,0,1-31.22-15.12,1.56,1.56,0,1,1,2.49-1.89,42.21,42.21,0,0,0,35.41,13.86,1.53,1.53,0,0,1,1.67,1.38v0a1.56,1.56,0,0,1-1.42,1.67A50.09,50.09,0,0,1,301.8,279Z" style="fill:#263238"/><path d="M248.73,195.62a3.11,3.11,0,0,1-2.45-4.77v0a31,31,0,0,1,24.37-14.74,3.13,3.13,0,0,1,0,6.25h0a24.65,24.65,0,0,0-19.16,11.85A3.08,3.08,0,0,1,248.73,195.62Z" style="fill:#263238"/><path d="M361.85,184.23a3.23,3.23,0,0,1-2.55-1.54,24.66,24.66,0,0,0-18.73-12.51,3.12,3.12,0,0,1-2.95-3.26,3.06,3.06,0,0,1,3.17-3h0a30.92,30.92,0,0,1,23.85,15.53,3.15,3.15,0,0,1-1.07,4.3A3.09,3.09,0,0,1,361.85,184.23Z" style="fill:#263238"/><path d="M139.45,154.76c3.66,94.42,228.62-24.64,183.82-77.49s-118-21.41-144.8-.27C145,103.36,138.57,131.62,139.45,154.76Z" style="fill:#263238"/><path d="M187.45,126.53c37.4,23.93,33.41,148.06-25.93,95.84S156.34,106.6,187.45,126.53Z" style="fill:#263238"/><path d="M160.26,250.66a48.83,48.83,0,0,0,26.2,26.53c15.86,6.55,25.8-7.12,23.09-23.14-2.44-14.4-13.7-35.16-30.32-34.88S154.42,235.93,160.26,250.66Z" style="fill:#a9534a"/></g></svg>