<?xml version="1.0" encoding="utf-8"?>
<!-- Generator: Adobe Illustrator 23.0.4, SVG Export Plug-In . SVG Version: 6.00 Build 0)  -->
<svg version="1.1" id="Layer_1" xmlns="http://www.w3.org/2000/svg" xmlns:xlink="http://www.w3.org/1999/xlink" x="0px" y="0px"
	 viewBox="0 0 32 32" style="enable-background:new 0 0 32 32;" xml:space="preserve">
<style type="text/css">
	.st0{fill:#008AD0;}
	.st1{fill:#333333;}
</style>
<g>
	<path class="st1" d="M25.838,31H6.162c-1.301,0-2.484-0.605-3.245-1.661c-0.761-1.056-0.961-2.37-0.549-3.604l0.704-2.113
		c0.729-2.185,2.678-3.778,4.966-4.059C10.131,19.307,13.211,19,16,19c2.788,0,5.869,0.307,7.963,0.563
		c2.287,0.28,4.236,1.874,4.965,4.059l0,0l0.704,2.113c0.412,1.234,0.212,2.548-0.55,3.604C28.321,30.395,27.139,31,25.838,31z
		 M16,21c-2.688,0-5.681,0.298-7.718,0.549c-1.527,0.187-2.827,1.249-3.312,2.706l-0.704,2.112
		c-0.206,0.618-0.106,1.274,0.274,1.802S5.511,29,6.162,29h19.676c0.65,0,1.242-0.303,1.622-0.83
		c0.381-0.528,0.48-1.185,0.275-1.803l-0.704-2.112c-0.486-1.457-1.786-2.52-3.312-2.706C21.681,21.298,18.687,21,16,21z"/>
</g>
<g>
	<path class="st1" d="M16,18c-4.687,0-8.5-3.813-8.5-8.5S11.313,1,16,1c4.687,0,8.5,3.813,8.5,8.5S20.687,18,16,18z M16,3
		c-3.584,0-6.5,2.916-6.5,6.5S12.416,16,16,16s6.5-2.916,6.5-6.5S19.584,3,16,3z"/>
</g>
<g>
	<path class="st0" d="M12.04,10.54c-0.543,0-0.988-0.435-1-0.98c-0.027-1.335,0.468-2.601,1.394-3.564
		c0.925-0.963,2.17-1.508,3.505-1.535c0.562,0.01,1.009,0.428,1.02,0.98c0.011,0.552-0.428,1.009-0.98,1.02
		c-0.801,0.016-1.548,0.343-2.103,0.92c-0.555,0.578-0.852,1.337-0.836,2.139c0.011,0.552-0.428,1.009-0.98,1.02
		C12.054,10.54,12.047,10.54,12.04,10.54z"/>
</g>
</svg>
